<svg width="343" height="448" viewBox="0 0 343 448" fill="none" xmlns="http://www.w3.org/2000/svg">
<path d="M468.845 176.935C481.644 188.161 508.795 217.047 507.85 230.113C509.159 233.751 512.109 234.305 513.658 239.311C516.061 247.083 526.74 254.187 533.503 260.216C547.932 273.079 541.858 290.143 542.91 302.578C543.675 311.626 540.179 317.754 537.038 324.848C534.325 330.979 528.522 334.978 525.857 340.999C523.245 346.9 518.719 349.592 517.241 356.565C514.892 367.644 510.931 378.803 507.534 389.474C493.113 434.776 451.308 462.883 400.038 476.391C373.661 483.341 337.621 487.799 304.524 476.982C272.743 466.595 238.856 450.785 210.646 430.56C176.164 405.837 140.94 383.267 107.299 357.656C73.9262 332.248 39.9316 302.417 18.9696 270.158C0.493142 241.724 -6.29496 214.155 9.29085 193.848C15.9563 185.164 18.9862 168.608 18.72 156.152C18.3219 137.53 21.9479 119.247 25.5887 102.075C31.0516 76.3098 33.1785 46.607 50.3845 27.136C62.7531 13.1392 77.0459 1.56599 100.823 0.642366C129.294 -0.463607 155.4 -0.161119 187.056 11.2998L188.357 11.7706C217.902 22.466 249.531 33.9158 277.655 50.1501C293.811 59.4759 309.257 69.6274 325.213 79.2503C342.139 89.4583 360.632 97.026 377.253 107.536C408.605 127.361 441.377 152.843 468.845 176.935Z" fill="#00A0DF"/>
</svg>
