<svg width="149" height="132" viewBox="0 0 149 132" fill="none" xmlns="http://www.w3.org/2000/svg">
<g clip-path="url(#clip0_71_161)">
<path d="M24.4913 29.1102C20.4925 27.9434 10.2236 49.05 23.8907 54.639C41.0355 61.6518 44.9849 37.9102 38.4337 35.3108C32.607 32.9992 32.4592 42.4833 27.0587 39.077C24.827 37.6692 31.2214 31.0701 24.4888 29.1056L24.4913 29.1102Z" fill="#211451"/>
<path d="M70.286 12.2128C66.2872 11.046 57.2768 34.1249 69.6853 37.7416C84.6298 42.1022 90.7796 21.0128 84.2284 18.4134C78.4017 16.1018 78.6885 26.4618 73.288 23.0554C71.0599 21.6486 77.0186 14.1772 70.286 12.2128Z" fill="#211451"/>
<path d="M57.9169 55.4146C47.04 50.6129 40.0649 79.0397 54.7283 83.3182C73.2464 88.7215 75.4078 61.2021 68.8591 58.6073C63.0324 56.2957 61.1941 70.7897 55.7935 67.3834C53.5619 65.9755 65.8479 58.9172 57.9169 55.4146Z" fill="#211451"/>
<path d="M95.0522 52.8132C86.0706 48.7556 78.7329 75.8767 93.3963 80.1552C104.968 83.5315 112.52 58.6667 105.994 56.006C97.5642 52.5678 101.117 66.7507 94.0301 63.8957C91.5801 62.9095 102.952 56.3832 95.0522 52.8132Z" fill="#211451"/>
<path d="M110.844 83.1367C105.535 81.5875 106.02 86.9569 104.997 90.4343C102.96 97.3913 104.287 103.859 111.244 105.889C115.985 107.272 119.017 106.746 121.483 104.397C124.191 101.821 124.562 95.9481 124.362 92.7024C124.184 89.8341 124.203 88.437 123.303 87.9795C117.701 85.1335 117.611 89.781 115.712 92.0015C114.897 92.9522 114.304 92.2786 112.831 91.7992C110.642 91.0838 117.354 85.0285 110.846 83.1296L110.844 83.1367Z" fill="#211451"/>
<path d="M128.099 49.615C122.779 48.101 121.674 53.6907 120.655 57.1692C118.618 64.1262 120.442 69.6343 125.524 71.1169C130.264 72.5 133.629 72.3354 136.094 69.9898C138.802 67.4131 140.805 63.018 141.618 59.1853C142.214 56.3743 145.473 53.5035 140.793 50.7624C135.37 47.5902 135.559 52.6402 133.66 54.8607C132.845 55.8114 131.378 56.9846 129.902 56.5041C127.712 55.7887 133.387 51.1198 128.102 49.6161L128.099 49.615Z" fill="#211451"/>
<path d="M103.328 30.5786C101.691 30.1008 96.5098 42.8781 102.406 44.5985C111.658 47.2981 111.505 34.6115 109.035 33.1189C106.248 31.4306 107.015 37.7688 104.806 36.3752C103.891 35.7988 106.082 31.386 103.327 30.5821L103.328 30.5786Z" fill="#211451"/>
</g>
<defs>
<clipPath id="clip0_71_161">
<rect width="125.006" height="100.52" fill="white" transform="translate(28.9629 0.155396) rotate(16.2663)"/>
</clipPath>
</defs>
</svg>
