<svg width="74" height="74" viewBox="0 0 74 74" fill="none" xmlns="http://www.w3.org/2000/svg">
<circle opacity="0.4" cx="37" cy="37" r="37" fill="white"/>
<path d="M21.8913 25.3334C21.8913 24.4129 22.6375 23.6667 23.558 23.6667H49.5725C50.4929 23.6667 51.2391 24.4129 51.2391 25.3334C51.2391 26.2538 50.4929 27 49.5725 27H23.558C22.6375 27 21.8913 26.2538 21.8913 25.3334ZM21.8913 37C21.8913 36.0795 22.6375 35.3334 23.558 35.3334H39.7899C40.7103 35.3334 41.4565 36.0795 41.4565 37C41.4565 37.9205 40.7103 38.6667 39.7898 38.6667H23.558C22.6375 38.6667 21.8913 37.9205 21.8913 37ZM21.8913 48.6667C21.8913 47.7462 22.6375 47 23.558 47H49.5725C50.4929 47 51.2391 47.7462 51.2391 48.6667C51.2391 49.5872 50.4929 50.3334 49.5725 50.3334H23.558C22.6375 50.3334 21.8913 49.5872 21.8913 48.6667Z" fill="#211451"/>
</svg>
