<svg width="149" height="132" viewBox="0 0 149 132" fill="none" xmlns="http://www.w3.org/2000/svg">
<g clip-path="url(#clip0_719_2432)">
<path d="M124.473 28.9548C128.472 27.788 138.741 48.8946 125.074 54.4837C107.929 61.4964 103.98 37.7548 110.531 35.1554C116.358 32.8438 116.505 42.328 121.906 38.9216C124.138 37.5138 117.743 30.9147 124.476 28.9503L124.473 28.9548Z" fill="#211451"/>
<path d="M78.6788 12.0574C82.6776 10.8906 91.688 33.9695 79.2795 37.5862C64.335 41.9468 58.1853 20.8574 64.7364 18.258C70.5632 15.9464 70.2763 26.3064 75.6769 22.9001C77.905 21.4932 71.9462 14.0218 78.6788 12.0574Z" fill="#211451"/>
<path d="M91.048 55.2592C101.925 50.4575 108.9 78.8843 94.2367 83.1628C75.7186 88.5661 73.5572 61.0468 80.1058 58.4519C85.9326 56.1403 87.7709 70.6343 93.1714 67.228C95.4031 65.8201 83.117 58.7618 91.048 55.2592Z" fill="#211451"/>
<path d="M53.9126 52.6578C62.8942 48.6002 70.2319 75.7213 55.5685 79.9998C43.9973 83.3761 36.4448 58.5113 42.9704 55.8506C51.4007 52.4124 47.8481 66.5954 54.9347 63.7403C57.3847 62.7541 46.0127 56.2278 53.9126 52.6578Z" fill="#211451"/>
<path d="M38.1208 82.9813C43.4303 81.4321 42.9456 86.8014 43.9679 90.2789C46.0054 97.2359 44.6781 103.703 37.7206 105.733C32.9804 107.117 29.9483 106.591 27.4821 104.242C24.7742 101.665 24.4029 95.7927 24.6036 92.5469C24.7809 89.6787 24.7622 88.2816 25.6621 87.8241C31.2642 84.9781 31.3544 89.6256 33.253 91.8461C34.068 92.7968 34.6608 92.1232 36.1338 91.6438C38.3234 90.9284 31.6111 84.8731 38.1188 82.9742L38.1208 82.9813Z" fill="#211451"/>
<path d="M20.866 49.4596C26.1857 47.9457 27.2905 53.5353 28.3092 57.0138C30.3468 63.9708 28.5222 69.4789 23.4412 70.9615C18.701 72.3446 15.3356 72.18 12.8705 69.8344C10.1626 67.2577 8.15952 62.8626 7.34624 59.0299C6.75101 56.2189 3.4921 53.3482 8.1716 50.607C13.5947 47.4348 13.4057 52.4848 15.3043 54.7053C16.1194 55.656 17.5865 56.8292 19.063 56.3487C21.2527 55.6333 15.5778 50.9644 20.8624 49.4607L20.866 49.4596Z" fill="#211451"/>
<path d="M45.6368 30.4233C47.2743 29.9455 52.4553 42.7228 46.559 44.4432C37.307 47.1428 37.4602 34.4562 39.9302 32.9635C42.7168 31.2753 41.9504 37.6135 44.1596 36.2198C45.0743 35.6434 42.883 31.2306 45.6379 30.4268L45.6368 30.4233Z" fill="#211451"/>
</g>
<defs>
<clipPath id="clip0_719_2432">
<rect width="125.006" height="100.52" fill="white" transform="matrix(-0.95997 0.280103 0.280103 0.95997 120.002 0)"/>
</clipPath>
</defs>
</svg>
