<svg width="51" height="52" viewBox="0 0 51 52" fill="none" xmlns="http://www.w3.org/2000/svg">
<circle cx="25.5" cy="26" r="25.5" fill="#211451"/>
<g clip-path="url(#clip0_132_275)">
<path d="M40.834 21.8727C41.2388 21.8727 41.5511 22.183 41.5511 22.5686C41.5511 22.9542 41.2365 23.269 40.8294 23.269C40.4222 23.269 40.103 22.9633 40.103 22.5686C40.103 22.1739 40.4246 21.8727 40.8294 21.8727H40.834ZM40.8271 22.0119C40.5171 22.0119 40.2858 22.2629 40.2858 22.5663C40.2858 22.8698 40.5171 23.1207 40.8363 23.1207C41.1463 23.1253 41.373 22.8743 41.373 22.5663C41.373 22.2583 41.1463 22.0119 40.8317 22.0119H40.8271ZM40.7183 22.9291H40.5541V22.2378C40.6189 22.2241 40.7091 22.2127 40.8247 22.2127C40.9589 22.2127 41.019 22.2332 41.0699 22.2674C41.1093 22.2971 41.1393 22.3519 41.1393 22.4157C41.1393 22.4956 41.0792 22.5549 40.9936 22.58V22.5891C41.063 22.6097 41.1 22.6644 41.1231 22.758C41.144 22.8629 41.1578 22.9063 41.174 22.9268H40.9982C40.9774 22.9017 40.9635 22.8424 40.9427 22.7602C40.9288 22.685 40.8872 22.6507 40.797 22.6507H40.7206V22.9268L40.7183 22.9291ZM40.723 22.5389H40.7993C40.8895 22.5389 40.9635 22.5093 40.9635 22.4363C40.9635 22.3724 40.9173 22.3313 40.8132 22.3313C40.7692 22.3313 40.7391 22.3359 40.723 22.3404V22.5389Z" fill="white"/>
<path d="M30.0432 27.1248C30.5336 27.1248 30.9291 26.7346 30.9291 26.251C30.9291 25.7673 30.5336 25.3771 30.0432 25.3771C29.5528 25.3771 29.1572 25.7696 29.1572 26.251C29.1572 26.7324 29.5528 27.1248 30.0432 27.1248Z" fill="white"/>
<path d="M10.5406 24.0812C10.5406 22.9177 10.4065 22.8835 9.70327 22.8059L9.44882 22.7739C9.34472 22.6964 9.3586 22.5093 9.47889 22.4659C10.078 22.4888 10.7511 22.4979 11.4081 22.4979C12.065 22.4979 12.7544 22.4865 13.4113 22.4659C13.5316 22.5093 13.5455 22.6964 13.4414 22.7739L13.1129 22.8059C12.4097 22.8835 12.2755 22.9154 12.2755 24.0812V26.5977C12.2755 28.1127 12.8376 29.3241 14.9172 29.3241C16.8764 29.3241 17.7508 28.302 17.7508 26.632V25.1764C17.7508 24.3527 17.737 23.4128 17.4663 23.0934C17.3321 22.9291 17.0916 22.8515 16.7192 22.8082L16.4208 22.7762C16.2866 22.6987 16.3005 22.5024 16.4508 22.4682C16.9597 22.491 17.5288 22.5002 18.1117 22.5002C18.7409 22.5002 19.1434 22.4888 19.6962 22.4682C19.8165 22.523 19.8466 22.6987 19.7263 22.7762L19.3978 22.831C19.1133 22.8743 18.845 22.92 18.7409 23.0956C18.5304 23.4242 18.5304 24.3117 18.5304 25.1787V26.5681C18.5304 27.5674 18.3199 28.4914 17.5426 29.1051C16.7654 29.7211 15.6435 29.9287 14.6118 29.9287C13.2054 29.9287 12.2177 29.7097 11.5307 29.226C10.8575 28.7538 10.543 27.9849 10.543 26.8761V24.0858L10.5406 24.0812Z" fill="white"/>
<path d="M35.6938 29.4268C36.404 29.3858 36.5312 29.3287 36.5312 28.1629V24.1041C36.5312 22.9405 36.3554 22.8835 35.6938 22.8401C35.2289 22.8105 34.8935 22.8105 34.3036 22.8401C33.6235 22.8743 33.4662 22.9382 33.4662 24.1041V28.1629C33.4662 29.3264 33.5958 29.3789 34.3036 29.4268C34.875 29.4656 35.0994 29.4611 35.6938 29.4268ZM30.894 22.8401L30.5655 22.8082C30.4614 22.7306 30.4753 22.5344 30.5956 22.4888C31.2525 22.5116 31.9257 22.5207 32.615 22.5207C32.615 22.5207 35.7933 22.5207 34.9421 22.5207C34.0908 22.5207 37.3732 22.5207 37.3732 22.5207C38.0602 22.5207 38.7334 22.5093 39.3926 22.4888C39.5129 22.5321 39.5268 22.7306 39.4227 22.8082L39.0942 22.8401C38.391 22.9063 38.2684 22.9382 38.2684 24.1041V28.1629C38.2684 29.3264 38.391 29.3607 39.0942 29.4268L39.4227 29.4588C39.5268 29.5363 39.5129 29.7326 39.3926 29.7782C38.7357 29.7554 38.0625 29.7462 37.3732 29.7462C37.3732 29.7462 34.1232 29.7645 34.9744 29.7645C35.8257 29.7645 32.6173 29.7462 32.6173 29.7462C31.9303 29.7462 31.2572 29.7576 30.5979 29.7782C30.4776 29.7348 30.4637 29.5363 30.5678 29.4588L30.8963 29.4268C31.5995 29.3607 31.7337 29.3287 31.7337 28.1629V24.1041C31.7337 22.9405 31.5995 22.9063 30.8963 22.8401H30.894Z" fill="white"/>
<path d="M21.0311 28.8975C19.6362 28.067 19.2661 26.9879 19.2661 26.0525C19.2661 25.3977 19.5645 24.2592 20.9316 23.4105C21.9563 22.7739 23.3096 22.3884 25.4284 22.3884C26.3098 22.3884 26.8372 22.4272 27.4918 22.4842C28.0331 22.5321 28.4888 22.6188 28.9144 22.6485C29.0717 22.6576 29.1272 22.7055 29.1272 22.7648C29.1272 22.8424 29.0856 22.9587 29.0555 23.2964C29.0277 23.6135 29.0416 24.1451 29.0116 24.3368C28.9977 24.4805 28.9699 24.5581 28.8404 24.5581C28.727 24.5581 28.697 24.4805 28.697 24.3459C28.6831 24.047 28.498 23.7094 28.1418 23.4584C27.6722 23.1207 26.5619 22.8606 25.2526 22.8606C24.0151 22.8606 23.2032 23.0728 22.5763 23.4584C21.5377 24.1041 21.267 25.0212 21.267 25.9566C21.267 28.2518 23.8439 29.3903 25.75 29.3903C27.0176 29.3903 27.7856 29.2945 28.3546 28.8496C28.5975 28.6671 28.7825 28.3864 28.8381 28.2131C28.8797 28.0579 28.9098 28.0191 29.0231 28.0191C29.1226 28.0191 29.1503 28.0876 29.1503 28.1629C29.1503 28.2792 28.9792 29.1165 28.8381 29.4451C28.7664 29.6093 28.7108 29.6572 28.468 29.7257C27.8989 29.8808 26.8163 29.947 25.905 29.947C23.9549 29.947 22.3172 29.6572 21.0241 28.8952L21.0311 28.8975Z" fill="white"/>
<path d="M24.9748 20.2301C31.6761 20.2301 37.8245 20.7046 42.6336 21.4986C38.4005 20.2757 32.0624 19.5 24.9748 19.5C17.8872 19.5 11.549 20.278 7.31592 21.4986C12.125 20.7069 18.2735 20.2301 24.9748 20.2301Z" fill="white"/>
<path d="M24.9748 31.77C31.6761 31.77 37.8245 31.2954 42.6336 30.5015C38.4005 31.7244 32.0624 32.5001 24.9748 32.5001C17.8872 32.5001 11.549 31.7221 7.31592 30.5015C12.125 31.2931 18.2735 31.77 24.9748 31.77Z" fill="white"/>
</g>
<defs>
<clipPath id="clip0_132_275">
<rect width="35" height="35" fill="white" transform="translate(8 8.5)"/>
</clipPath>
</defs>
</svg>
