<svg width="51" height="51" viewBox="0 0 51 51" fill="none" xmlns="http://www.w3.org/2000/svg">
<circle cx="25.5" cy="25.5" r="25.5" fill="#211451"/>
<path d="M35.1418 32.7725C35.1425 32.272 35.0308 31.7778 34.8151 31.3262L35.6239 31.3262C36.4282 31.3265 37.2062 31.0395 37.8177 30.5169C38.4292 29.9943 38.8339 29.2705 38.959 28.476C39.084 27.6814 38.9211 26.8683 38.4997 26.1831C38.0783 25.498 37.426 24.986 36.6604 24.7392C36.9392 24.2253 37.0797 23.6477 37.0681 23.0632C37.0565 22.4786 36.8932 21.9071 36.5943 21.4046C36.2953 20.9022 35.871 20.486 35.3628 20.1968C34.8546 19.9077 34.2801 19.7556 33.6954 19.7553L25.9815 19.7553L26.7203 19.2949C27.4921 18.8477 28.0554 18.1131 28.2872 17.2518C28.519 16.3904 28.4003 15.4724 27.9572 14.6983C27.5141 13.9241 26.7825 13.3569 25.9224 13.1206C25.0623 12.8843 24.1436 12.9981 23.3672 13.4371C19.2969 15.3656 16.4102 16.924 14.6059 18.7067C12.7786 20.5074 12 22.5516 12 25.5407C12.0032 28.3528 13.1217 31.0488 15.1101 33.0372C17.0986 35.0257 19.7946 36.1442 22.6066 36.1474L31.7669 36.1474C32.662 36.1474 33.5204 35.7918 34.1533 35.1589C34.7862 34.526 35.1418 33.6676 35.1418 32.7725ZM22.6066 34.2189C20.3058 34.2163 18.1 33.3012 16.4731 31.6743C14.8462 30.0474 13.931 27.8415 13.9285 25.5407C13.9285 23.0843 14.5167 21.5018 15.9594 20.0771C17.5757 18.4825 20.3166 17.0144 24.2241 15.1631C24.2481 15.1522 24.2714 15.1402 24.2941 15.1269C24.6263 14.9351 25.0212 14.8832 25.3918 14.9825C25.7624 15.0819 26.0783 15.3244 26.2701 15.6567C26.4619 15.989 26.5139 16.3838 26.4145 16.7544C26.3152 17.125 26.0727 17.441 25.7404 17.6328C25.7308 17.6377 25.7215 17.6433 25.7127 17.6496L22.0968 19.8999C21.9184 20.0105 21.781 20.1762 21.7053 20.3719C21.6297 20.5677 21.62 20.7827 21.6776 20.9845C21.7353 21.1863 21.8572 21.3637 22.0249 21.4899C22.1925 21.6161 22.3968 21.6842 22.6066 21.6838L33.6954 21.6838C34.079 21.6838 34.4469 21.8362 34.7181 22.1074C34.9894 22.3786 35.1418 22.7465 35.1418 23.1301C35.1418 23.5137 34.9894 23.8816 34.7181 24.1529C34.4469 24.4241 34.079 24.5765 33.6954 24.5765L26.4636 24.5765C26.2079 24.5765 25.9626 24.6781 25.7818 24.8589C25.6009 25.0397 25.4994 25.285 25.4994 25.5407C25.4994 25.7965 25.6009 26.0417 25.7818 26.2225C25.9626 26.4034 26.2079 26.505 26.4636 26.505L35.6239 26.505C36.0075 26.505 36.3754 26.6574 36.6466 26.9286C36.9178 27.1998 37.0702 27.5677 37.0702 27.9513C37.0702 28.3349 36.9178 28.7028 36.6466 28.9741C36.3754 29.2453 36.0075 29.3977 35.6239 29.3977L26.4636 29.3977C26.2079 29.3977 25.9626 29.4993 25.7818 29.6801C25.6009 29.8609 25.4994 30.1062 25.4994 30.3619C25.4994 30.6177 25.6009 30.8629 25.7818 31.0437C25.9626 31.2246 26.2079 31.3262 26.4636 31.3262L31.7669 31.3262C32.1505 31.3262 32.5184 31.4785 32.7896 31.7498C33.0609 32.021 33.2133 32.3889 33.2133 32.7725C33.2133 33.1561 33.0609 33.524 32.7896 33.7953C32.5184 34.0665 32.1505 34.2189 31.7669 34.2189L22.6066 34.2189Z" fill="white"/>
</svg>
