<svg width="51" height="51" viewBox="0 0 51 51" fill="none" xmlns="http://www.w3.org/2000/svg">
<circle cx="25.5" cy="25.5" r="25.5" fill="#211451"/>
<g filter="url(#filter0_d_132_263)">
<mask id="path-2-inside-1_132_263" fill="white">
<path fill-rule="evenodd" clip-rule="evenodd" d="M38.7853 22.028C39.9569 20.8564 39.9569 18.9569 38.7853 17.7854L33.3983 12.3983C32.2267 11.2268 30.3272 11.2268 29.1556 12.3983L28.2131 13.3409C27.0415 14.5125 25.142 14.5125 23.9704 13.3409L23.0279 12.3983C21.8563 11.2267 19.9568 11.2267 18.7852 12.3983L13.3982 17.7853C12.2266 18.9569 12.2266 20.8564 13.3982 22.028L14.3408 22.9706C15.5123 24.1421 15.5123 26.0416 14.3408 27.2132L13.3982 28.1558C12.2266 29.3274 12.2266 31.2269 13.3982 32.3984L18.7852 37.7855C19.9568 38.957 21.8563 38.957 23.0279 37.7855L23.9704 36.8429C25.142 35.6713 27.0415 35.6713 28.2131 36.8429L29.1556 37.7854C30.3272 38.957 32.2267 38.957 33.3983 37.7854L38.7853 32.3984C39.9569 31.2268 39.9569 29.3273 38.7853 28.1558L37.8428 27.2132C36.6712 26.0416 36.6712 24.1421 37.8428 22.9706L38.7853 22.028Z"/>
</mask>
<path d="M37.8428 27.2132L36.4285 28.6274L37.8428 27.2132ZM37.8428 22.9706L36.4285 21.5564L37.8428 22.9706ZM38.7853 32.3984L37.3711 30.9842L38.7853 32.3984ZM38.7853 28.1558L37.3711 29.57L38.7853 28.1558ZM29.1556 37.7854L27.7414 39.1996L29.1556 37.7854ZM33.3983 37.7854L34.8125 39.1996L33.3983 37.7854ZM28.2131 36.8429L26.7989 38.2571L28.2131 36.8429ZM13.3982 32.3984L11.984 33.8126L13.3982 32.3984ZM14.3408 22.9706L12.9266 24.3848L14.3408 22.9706ZM13.3982 22.028L14.8124 20.6138L13.3982 22.028ZM23.0279 12.3983L21.6137 13.8125L23.0279 12.3983ZM31.9841 13.8126L37.3711 19.1996L40.1995 16.3712L34.8125 10.9841L31.9841 13.8126ZM29.6273 14.7551L30.5699 13.8126L27.7414 10.9841L26.7989 11.9267L29.6273 14.7551ZM21.6137 13.8125L22.5562 14.7551L25.3847 11.9267L24.4421 10.9841L21.6137 13.8125ZM14.8124 19.1996L20.1994 13.8125L17.371 10.9841L11.984 16.3711L14.8124 19.1996ZM15.755 21.5564L14.8124 20.6138L11.984 23.4422L12.9266 24.3848L15.755 21.5564ZM14.8124 29.57L15.755 28.6274L12.9266 25.799L11.984 26.7416L14.8124 29.57ZM20.1994 36.3712L14.8124 30.9842L11.984 33.8126L17.371 39.1997L20.1994 36.3712ZM22.5562 35.4287L21.6137 36.3712L24.4421 39.1997L25.3847 38.2571L22.5562 35.4287ZM30.5698 36.3712L29.6273 35.4287L26.7989 38.2571L27.7414 39.1996L30.5698 36.3712ZM37.3711 30.9842L31.9841 36.3712L34.8125 39.1996L40.1995 33.8126L37.3711 30.9842ZM36.4285 28.6274L37.3711 29.57L40.1995 26.7415L39.257 25.799L36.4285 28.6274ZM37.3711 20.6138L36.4285 21.5564L39.257 24.3848L40.1995 23.4422L37.3711 20.6138ZM39.257 25.799C38.8664 25.4085 38.8664 24.7753 39.257 24.3848L36.4285 21.5564C34.4759 23.509 34.4759 26.6748 36.4285 28.6274L39.257 25.799ZM40.1995 33.8126C42.1521 31.86 42.1521 28.6942 40.1995 26.7415L37.3711 29.57C37.7616 29.9605 37.7616 30.5937 37.3711 30.9842L40.1995 33.8126ZM27.7414 39.1996C29.694 41.1523 32.8599 41.1523 34.8125 39.1996L31.9841 36.3712C31.5935 36.7617 30.9604 36.7617 30.5698 36.3712L27.7414 39.1996ZM25.3847 38.2571C25.7752 37.8666 26.4083 37.8666 26.7989 38.2571L29.6273 35.4287C27.6747 33.4761 24.5089 33.476 22.5562 35.4287L25.3847 38.2571ZM17.371 39.1997C19.3236 41.1523 22.4895 41.1523 24.4421 39.1997L21.6137 36.3712C21.2231 36.7618 20.59 36.7618 20.1994 36.3712L17.371 39.1997ZM11.984 26.7416C10.0314 28.6942 10.0314 31.86 11.984 33.8126L14.8124 30.9842C14.4219 30.5937 14.4219 29.9605 14.8124 29.57L11.984 26.7416ZM12.9266 24.3848C13.3171 24.7753 13.3171 25.4085 12.9266 25.799L15.755 28.6274C17.7076 26.6748 17.7076 23.509 15.755 21.5564L12.9266 24.3848ZM11.984 16.3711C10.0314 18.3238 10.0314 21.4896 11.984 23.4422L14.8124 20.6138C14.4219 20.2233 14.4219 19.5901 14.8124 19.1996L11.984 16.3711ZM24.4421 10.9841C22.4895 9.03148 19.3236 9.03148 17.371 10.9841L20.1994 13.8125C20.59 13.422 21.2231 13.422 21.6137 13.8125L24.4421 10.9841ZM26.7989 11.9267C26.4084 12.3172 25.7752 12.3172 25.3847 11.9267L22.5562 14.7551C24.5089 16.7077 27.6747 16.7077 29.6273 14.7551L26.7989 11.9267ZM37.3711 19.1996C37.7616 19.5901 37.7616 20.2233 37.3711 20.6138L40.1995 23.4422C42.1521 21.4896 42.1521 18.3238 40.1995 16.3712L37.3711 19.1996ZM34.8125 10.9841C32.8599 9.03151 29.6941 9.03151 27.7414 10.9841L30.5699 13.8126C30.9604 13.422 31.5935 13.422 31.9841 13.8126L34.8125 10.9841Z" fill="white" mask="url(#path-2-inside-1_132_263)"/>
</g>
<defs>
<filter id="filter0_d_132_263" x="11.5195" y="11.5197" width="28.1445" height="27.1445" filterUnits="userSpaceOnUse" color-interpolation-filters="sRGB">
<feFlood flood-opacity="0" result="BackgroundImageFix"/>
<feColorMatrix in="SourceAlpha" type="matrix" values="0 0 0 0 0 0 0 0 0 0 0 0 0 0 0 0 0 0 127 0" result="hardAlpha"/>
<feOffset dx="-1"/>
<feComposite in2="hardAlpha" operator="out"/>
<feColorMatrix type="matrix" values="0 0 0 0 1 0 0 0 0 1 0 0 0 0 1 0 0 0 1 0"/>
<feBlend mode="normal" in2="BackgroundImageFix" result="effect1_dropShadow_132_263"/>
<feBlend mode="normal" in="SourceGraphic" in2="effect1_dropShadow_132_263" result="shape"/>
</filter>
</defs>
</svg>
