<svg width="51" height="52" viewBox="0 0 51 52" fill="none" xmlns="http://www.w3.org/2000/svg">
<circle cx="25.5" cy="26" r="25.5" fill="#211451"/>
<path fill-rule="evenodd" clip-rule="evenodd" d="M25.5002 13.0833C32.6224 13.0833 38.4168 18.8777 38.4168 26C38.4168 33.1222 32.6224 38.9167 25.5002 38.9167C18.3779 38.9167 12.5835 33.1222 12.5835 26C12.5835 18.8777 18.3779 13.0833 25.5002 13.0833ZM25.5002 15.0208C19.4461 15.0208 14.521 19.946 14.521 26C14.521 32.054 19.4461 36.9792 25.5002 36.9792C31.5542 36.9792 36.4793 32.054 36.4793 26C36.4793 19.946 31.5542 15.0208 25.5002 15.0208ZM25.0625 19.6649C25.5986 19.6649 26.0313 20.0989 26.0313 20.6336V26.3454L30.4294 28.9675C30.888 29.2426 31.0391 29.8368 30.7653 30.2966C30.5831 30.6001 30.2615 30.7693 29.9321 30.7693C29.7629 30.7693 29.5924 30.7254 29.4361 30.6337L24.5665 27.7288C24.2746 27.5531 24.0938 27.2366 24.0938 26.8956V20.6336C24.0938 20.0989 24.5278 19.6649 25.0625 19.6649Z" fill="white"/>
</svg>
