<svg width="51" height="51" viewBox="0 0 51 51" fill="none" xmlns="http://www.w3.org/2000/svg">
<circle cx="25.5" cy="25.5" r="25.5" fill="#211451"/>
<path d="M20.3334 30.6667C18.5251 30.0641 16.4358 28.6175 15.5052 27.163C15.3819 26.9611 15.3264 26.7251 15.3469 26.4894L15.5052 24.0676C15.5394 23.5444 16.1575 23.2667 16.5844 23.5703C17.9632 24.55 20.4807 26.1459 22.2709 26.1459C26.7918 26.1459 30.6668 24.5313 32.6043 20.9792" stroke="white" stroke-width="2" stroke-linecap="round" stroke-linejoin="round"/>
<path d="M26.7918 37.7708C33.2501 36.4792 39.2189 29.7076 37.6851 22.8786L37.1245 20.3333V15.1667L33.2495 14.5208C33.2495 22.8786 31.312 29.375 22.9162 30.6667C19.0567 31.2608 15.3567 30.4174 12.4995 28.7796L13.2293 33.25C14.521 36.4792 20.3335 39.0625 26.7918 37.7708Z" stroke="white" stroke-width="2" stroke-linecap="round" stroke-linejoin="round"/>
</svg>
