<svg width="265" height="378" viewBox="0 0 265 378" fill="none" xmlns="http://www.w3.org/2000/svg">
<path d="M417.197 157.549C429.014 166.8 454.261 190.189 453.876 199.82C455.171 202.614 457.824 203.237 459.382 207.064C461.8 213.005 471.58 219.044 477.828 224.005C491.158 234.587 486.335 246.818 487.71 256.124C488.71 262.895 485.805 267.193 483.251 272.234C481.044 276.589 476.005 279.141 473.837 283.42C471.713 287.612 467.768 289.287 466.694 294.356C464.986 302.412 461.842 310.411 459.184 318.088C447.902 350.68 411.576 368.545 366.289 374.894C342.99 378.161 310.98 378.885 281.06 368.482C252.33 358.492 221.53 344.326 195.642 327.29C163.998 306.465 131.768 287.185 100.843 265.761C70.1655 244.508 38.7776 219.926 18.9365 194.478C1.44802 172.047 -5.5778 151.096 7.6207 137.14C13.2652 131.172 15.3887 119.1 14.7141 109.836C13.7054 95.9837 16.3003 82.6728 18.9475 70.1878C22.9195 51.4544 23.7757 29.5591 38.4496 16.3403C48.998 6.8379 61.3488 -0.727483 82.5383 0.292413C107.911 1.51366 131.223 3.61074 159.879 14.3886L161.056 14.8313C187.801 24.8895 216.433 35.6572 242.105 49.725C256.852 57.8062 270.994 66.4494 285.573 74.7368C301.038 83.528 317.809 90.4719 333.013 99.4657C361.691 116.43 391.835 137.696 417.197 157.549Z" fill="#FFD541"/>
</svg>
