<svg width="88" height="86" viewBox="0 0 88 86" fill="none" xmlns="http://www.w3.org/2000/svg">
<g clip-path="url(#clip0_593_3434)">
<path d="M45.9258 6.25802L51.9954 0.742798C53.4923 -0.616426 55.9135 -0.0302922 56.5965 1.85948L59.3669 9.51965C59.8624 10.8915 61.349 11.6595 62.7766 11.2806L70.7565 9.17353C72.7232 8.65308 74.5898 10.2801 74.3023 12.2659L73.1392 20.3151C72.9312 21.7577 73.8838 23.1144 75.3267 23.4353L83.3888 25.2189C85.3761 25.6585 86.2593 27.9526 85.068 29.5796L80.2359 36.1736C79.3706 37.356 79.5734 38.9931 80.7006 39.9355L86.9962 45.2006C88.547 46.4991 88.2466 48.9346 86.4262 49.829L79.0342 53.4595C77.7094 54.1088 77.1163 55.6524 77.6683 57.0041L80.7571 64.5455C81.5171 66.405 80.1023 68.4236 78.0663 68.3832L69.8065 68.2164C68.3276 68.1861 67.0721 69.28 66.9231 70.7302L66.0964 78.8199C65.8936 80.8132 63.6855 81.9552 61.901 80.9876L54.6657 77.0615C53.3691 76.3591 51.7413 76.7533 50.9248 77.9685L46.3725 84.752C45.2505 86.4245 42.7574 86.4245 41.6328 84.752L37.0806 77.9685C36.2641 76.7533 34.6363 76.3591 33.3397 77.0615L26.1043 80.9876C24.3199 81.9552 22.1118 80.8158 21.909 78.8199L21.0822 70.7302C20.9333 69.28 19.6778 68.1861 18.1989 68.2164L9.93907 68.3832C7.90301 68.4236 6.48572 66.405 7.24828 64.5455L10.337 57.0041C10.8891 55.6524 10.296 54.1113 8.9711 53.4595L1.57915 49.829C-0.24381 48.9346 -0.544213 46.4991 1.00915 45.2006L7.30477 39.9355C8.43192 38.9931 8.63476 37.3534 7.76949 36.1736L2.93738 29.5796C1.74604 27.9551 2.63184 25.6585 4.61655 25.2189L12.6786 23.4353C14.1242 23.1169 15.0742 21.7577 14.8662 20.3151L13.7031 12.2659C13.4155 10.2826 15.2821 8.65561 17.2489 9.17353L25.2288 11.2806C26.6589 11.657 28.143 10.8915 28.6385 9.51965L31.4089 1.85948C32.0918 -0.0277657 34.513 -0.616426 36.0099 0.742798L42.0796 6.25802C43.1682 7.24585 44.8448 7.24585 45.9309 6.25802H45.9258Z" fill="#71974A"/>
<path d="M64.9819 29.0414L63.0819 27.3512C61.9779 26.371 60.2756 26.4543 59.2768 27.5407L39.9201 48.6188L30.1121 38.9678C29.3187 38.1871 28.035 38.1871 27.2442 38.9678L24.4943 41.6736C23.7009 42.4543 23.7009 43.7175 24.4943 44.4956L38.6081 58.3835C39.4015 59.1641 40.6853 59.1641 41.4761 58.3835L65.1745 32.7831C66.1707 31.6967 66.086 30.0217 64.9819 29.0389V29.0414Z" fill="white"/>
</g>
<defs>
<clipPath id="clip0_593_3434">
<rect width="88" height="86" fill="white"/>
</clipPath>
</defs>
</svg>
