<svg width="345" height="465" viewBox="0 0 345 465" fill="none" xmlns="http://www.w3.org/2000/svg">
<path d="M413.959 495.48C430.058 494.95 468.094 489.407 477.551 477.34C481.104 475.116 483.258 476.765 488 473.522C495.363 468.488 507.061 470.017 515.642 469.652C533.95 468.874 543.465 449.616 553.607 439.542C560.987 432.211 563.634 424.345 567.229 415.894C570.336 408.591 570 400.913 573.051 393.74C576.041 386.711 575.453 381.094 579.929 373.95C587.041 362.599 593.269 350.014 599.454 338.261C625.712 288.366 622.753 233.661 603.065 184.834C592.936 159.713 575.237 129.78 547.56 115.283C520.983 101.362 489.018 90.6439 456.996 87.8767C417.854 84.4943 379.926 78.6995 340.596 76.6993C301.579 74.715 258.809 76.1361 221.814 89.0918C189.206 100.511 164.108 119.625 157.682 148.584C154.933 160.968 144.025 177.583 134.326 188.243C119.826 204.181 107.944 222.732 96.9212 240.325C80.3824 266.723 58.8728 294.14 54.0361 323.541C50.5592 344.676 50.0663 365.09 63.2888 383.081C79.1216 404.623 94.648 423.229 121.974 436.123L123.097 436.653C148.6 448.689 175.902 461.574 204.816 467.757C221.426 471.309 238.253 473.629 254.973 476.777C272.709 480.116 289.341 486.889 307.131 489.745C340.688 495.133 379.409 496.618 413.959 495.48Z" fill="#85F19C"/>
</svg>
