<svg width="51" height="51" viewBox="0 0 51 51" fill="none" xmlns="http://www.w3.org/2000/svg">
<circle cx="25.5" cy="25.5" r="25.5" fill="#211451"/>
<path d="M37.0625 34.1719C37.0634 33.5717 36.9295 32.9791 36.6709 32.4375L37.6407 32.4375C38.6052 32.4379 39.5381 32.0937 40.2714 31.4671C41.0046 30.8405 41.4899 29.9725 41.6399 29.0197C41.7898 28.0669 41.5945 27.0919 41.0892 26.2704C40.5838 25.4488 39.8017 24.8348 38.8836 24.5389C39.2179 23.9226 39.3863 23.2301 39.3724 22.5291C39.3585 21.8281 39.1627 21.1428 38.8043 20.5403C38.4458 19.9378 37.937 19.4387 37.3276 19.092C36.7183 18.7453 36.0293 18.5628 35.3282 18.5625L26.0782 18.5625L26.9641 18.0104C27.8896 17.4741 28.5651 16.5933 28.843 15.5605C29.1209 14.5276 28.9787 13.4267 28.4473 12.4985C27.9159 11.5702 27.0387 10.89 26.0073 10.6067C24.976 10.3233 23.8743 10.4597 22.9433 10.9862C18.0625 13.2987 14.6009 15.1675 12.4373 17.3051C10.2462 19.4644 9.31255 21.9156 9.31255 25.5C9.31637 28.8721 10.6576 32.1049 13.042 34.4893C15.4264 36.8737 18.6592 38.2149 22.0313 38.2188L33.0157 38.2188C34.089 38.2188 35.1183 37.7924 35.8772 37.0335C36.6362 36.2745 37.0625 35.2452 37.0625 34.1719ZM22.0313 35.9063C19.2723 35.9032 16.6272 34.8058 14.6763 32.855C12.7255 30.9041 11.6281 28.259 11.625 25.5C11.625 22.5545 12.3304 20.6568 14.0604 18.9484C15.9986 17.0363 19.2852 15.2759 23.9709 13.0559C23.9996 13.0429 24.0275 13.0284 24.0547 13.0125C24.4532 12.7825 24.9267 12.7202 25.3711 12.8394C25.8155 12.9585 26.1943 13.2493 26.4243 13.6477C26.6543 14.0462 26.7166 14.5197 26.5975 14.9641C26.4783 15.4085 26.1876 15.7873 25.7891 16.0173C25.7775 16.0232 25.7664 16.03 25.7559 16.0376L21.4199 18.7359C21.206 18.8685 21.0412 19.0672 20.9505 19.3019C20.8598 19.5367 20.8481 19.7946 20.9173 20.0365C20.9864 20.2785 21.1326 20.4912 21.3337 20.6426C21.5347 20.7939 21.7797 20.8755 22.0313 20.875L35.3282 20.875C35.7882 20.875 36.2293 21.0577 36.5546 21.383C36.8798 21.7083 37.0625 22.1494 37.0625 22.6094C37.0625 23.0694 36.8798 23.5105 36.5546 23.8358C36.2293 24.161 35.7882 24.3438 35.3282 24.3438L26.6563 24.3438C26.3496 24.3438 26.0555 24.4656 25.8387 24.6824C25.6219 24.8993 25.5 25.1934 25.5 25.5C25.5 25.8067 25.6219 26.1008 25.8387 26.3176C26.0555 26.5344 26.3496 26.6563 26.6563 26.6563L37.6407 26.6563C38.1007 26.6563 38.5418 26.839 38.8671 27.1643C39.1923 27.4895 39.375 27.9307 39.375 28.3906C39.375 28.8506 39.1923 29.2918 38.8671 29.617C38.5418 29.9423 38.1007 30.125 37.6407 30.125L26.6563 30.125C26.3496 30.125 26.0555 30.2468 25.8387 30.4637C25.6219 30.6805 25.5 30.9746 25.5 31.2813C25.5 31.5879 25.6219 31.882 25.8387 32.0989C26.0555 32.3157 26.3496 32.4375 26.6563 32.4375L33.0157 32.4375C33.4757 32.4375 33.9168 32.6202 34.2421 32.9455C34.5673 33.2708 34.75 33.7119 34.75 34.1719C34.75 34.6319 34.5673 35.073 34.2421 35.3983C33.9168 35.7235 33.4757 35.9063 33.0157 35.9063L22.0313 35.9063Z" fill="white"/>
<line x1="12.7071" y1="10.2929" x2="40.7071" y2="38.2929" stroke="white" stroke-width="2"/>
</svg>
