<svg width="51" height="51" viewBox="0 0 51 51" fill="none" xmlns="http://www.w3.org/2000/svg">
<circle cx="25.5" cy="25.5" r="25.5" fill="#211451"/>
<path d="M32.3359 12.375C29.5127 12.375 27.0408 13.5891 25.5 15.6412C23.9592 13.5891 21.4873 12.375 18.6641 12.375C16.4167 12.3775 14.2621 13.2714 12.673 14.8605C11.0839 16.4496 10.19 18.6042 10.1875 20.8516C10.1875 30.4219 24.3775 38.1684 24.9818 38.4883C25.1411 38.574 25.3191 38.6188 25.5 38.6188C25.6809 38.6188 25.8589 38.574 26.0182 38.4883C26.6225 38.1684 40.8125 30.4219 40.8125 20.8516C40.81 18.6042 39.9161 16.4496 38.327 14.8605C36.7379 13.2714 34.5833 12.3775 32.3359 12.375ZM25.5 36.2734C23.0035 34.8187 12.375 28.192 12.375 20.8516C12.3772 19.1843 13.0405 17.5859 14.2194 16.4069C15.3984 15.228 16.9968 14.5647 18.6641 14.5625C21.3232 14.5625 23.5559 15.9789 24.4883 18.2539C24.5707 18.4545 24.7109 18.6261 24.891 18.7468C25.0712 18.8676 25.2831 18.9321 25.5 18.9321C25.7169 18.9321 25.9288 18.8676 26.109 18.7468C26.2891 18.6261 26.4293 18.4545 26.5117 18.2539C27.4441 15.9748 29.6768 14.5625 32.3359 14.5625C34.0032 14.5647 35.6016 15.228 36.7806 16.4069C37.9595 17.5859 38.6228 19.1843 38.625 20.8516C38.625 28.1811 27.9937 34.8174 25.5 36.2734Z" fill="white"/>
</svg>
