<svg width="259" height="250" viewBox="0 0 259 250" fill="none" xmlns="http://www.w3.org/2000/svg">
<path d="M116.55 21.6132C122.369 11.8617 136.493 11.8617 142.312 21.6132L227.384 164.178C233.35 174.176 226.146 186.864 214.503 186.864H44.3593C32.716 186.864 25.512 174.176 31.4783 164.178L116.55 21.6132Z" fill="#211451"/>
<mask id="mask0_124_313" style="mask-type:alpha" maskUnits="userSpaceOnUse" x="29" y="14" width="201" height="173">
<path d="M116.55 21.6132C122.369 11.8617 136.493 11.8617 142.312 21.6132L227.384 164.178C233.35 174.176 226.146 186.864 214.503 186.864H44.3593C32.716 186.864 25.512 174.176 31.4783 164.178L116.55 21.6132Z" fill="white"/>
</mask>
<g mask="url(#mask0_124_313)">
<path opacity="0.5" d="M202.91 99.6102L153.387 193.661H255.183L202.91 99.6102Z" fill="white"/>
</g>
<mask id="mask1_124_313" style="mask-type:alpha" maskUnits="userSpaceOnUse" x="29" y="14" width="201" height="173">
<path d="M116.55 21.6132C122.369 11.8617 136.493 11.8617 142.312 21.6132L227.384 164.178C233.35 174.176 226.146 186.864 214.503 186.864H44.3593C32.716 186.864 25.512 174.176 31.4783 164.178L116.55 21.6132Z" fill="white"/>
</mask>
<g mask="url(#mask1_124_313)">
<mask id="mask2_124_313" style="mask-type:alpha" maskUnits="userSpaceOnUse" x="135" y="106" width="118" height="108">
<line x1="169.681" y1="106.923" x2="252.09" y2="154.501" stroke="white"/>
<line x1="164.149" y1="116.505" x2="246.557" y2="164.083" stroke="white"/>
<line x1="158.616" y1="126.087" x2="241.025" y2="173.666" stroke="white"/>
<line x1="152.531" y1="136.628" x2="234.939" y2="184.206" stroke="white"/>
<line x1="146.998" y1="146.21" x2="229.407" y2="193.789" stroke="white"/>
<line x1="141.466" y1="155.793" x2="223.875" y2="203.371" stroke="white"/>
<line x1="135.934" y1="165.375" x2="218.342" y2="212.954" stroke="white"/>
</mask>
<g mask="url(#mask2_124_313)">
<path opacity="0.5" d="M202.91 99.6102L153.387 193.661H255.183L202.91 99.6102Z" fill="white"/>
</g>
</g>
</svg>
