<svg width="259" height="251" viewBox="0 0 259 251" fill="none" xmlns="http://www.w3.org/2000/svg">
<path d="M116.818 22.5067C122.637 12.7552 136.761 12.7552 142.58 22.5067L227.651 165.071C233.618 175.069 226.414 187.757 214.77 187.757H44.627C32.9837 187.757 25.7797 175.069 31.746 165.071L116.818 22.5067Z" fill="#211451"/>
<mask id="mask0_124_312" style="mask-type:alpha" maskUnits="userSpaceOnUse" x="29" y="15" width="201" height="173">
<path d="M116.818 22.5067C122.637 12.7552 136.761 12.7552 142.58 22.5067L227.651 165.071C233.618 175.069 226.414 187.757 214.77 187.757H44.627C32.9837 187.757 25.7797 175.069 31.746 165.071L116.818 22.5067Z" fill="white"/>
</mask>
<g mask="url(#mask0_124_312)">
<path opacity="0.5" d="M221.359 120.42L189.062 194.554H255.451L221.359 120.42Z" fill="white"/>
</g>
<mask id="mask1_124_312" style="mask-type:alpha" maskUnits="userSpaceOnUse" x="189" y="120" width="41" height="68">
<mask id="mask2_124_312" style="mask-type:alpha" maskUnits="userSpaceOnUse" x="29" y="15" width="201" height="173">
<path d="M116.818 22.5067C122.637 12.7552 136.761 12.7552 142.58 22.5067L227.651 165.071C233.618 175.069 226.414 187.757 214.77 187.757H44.627C32.9837 187.757 25.7797 175.069 31.746 165.071L116.818 22.5067Z" fill="white"/>
</mask>
<g mask="url(#mask2_124_312)">
<path opacity="0.5" d="M221.359 120.42L189.062 194.554H255.451L221.359 120.42Z" fill="white"/>
</g>
</mask>
<g mask="url(#mask1_124_312)">
<line x1="184.333" y1="113.348" x2="266.742" y2="160.927" stroke="white"/>
<line x1="178.801" y1="122.931" x2="261.209" y2="170.509" stroke="white"/>
<line x1="173.268" y1="132.513" x2="255.677" y2="180.092" stroke="white"/>
<line x1="167.183" y1="143.054" x2="249.591" y2="190.632" stroke="white"/>
<line x1="161.65" y1="152.636" x2="244.059" y2="200.215" stroke="white"/>
<line x1="156.118" y1="162.219" x2="238.526" y2="209.797" stroke="white"/>
<line x1="150.585" y1="171.801" x2="232.994" y2="219.38" stroke="white"/>
</g>
</svg>
