<svg width="74" height="25" viewBox="0 0 74 25" fill="none" xmlns="http://www.w3.org/2000/svg">
<g clip-path="url(#clip0_303_797)">
<path opacity="0.2" d="M22 10.7679C23.3333 11.5378 23.3333 13.4623 22 14.2321L9.25 21.5933C7.91667 22.3631 6.25 21.4008 6.25 19.8612L6.25 5.13878C6.25 3.59918 7.91667 2.63693 9.25 3.40673L22 10.7679Z" fill="#71974A"/>
<path opacity="0.4" d="M46 10.7679C47.3333 11.5378 47.3333 13.4623 46 14.2321L33.25 21.5933C31.9167 22.3631 30.25 21.4008 30.25 19.8612L30.25 5.13878C30.25 3.59918 31.9167 2.63693 33.25 3.40673L46 10.7679Z" fill="#71974A"/>
<path opacity="0.8" d="M71 10.7679C72.3333 11.5378 72.3333 13.4623 71 14.2321L58.25 21.5933C56.9167 22.3631 55.25 21.4008 55.25 19.8612L55.25 5.13878C55.25 3.59918 56.9167 2.63693 58.25 3.40673L71 10.7679Z" fill="#71974A"/>
</g>
<defs>
<clipPath id="clip0_303_797">
<rect width="74" height="25" fill="white"/>
</clipPath>
</defs>
</svg>
