<svg width="331" height="406" viewBox="0 0 331 406" fill="none" xmlns="http://www.w3.org/2000/svg">
<path d="M237.241 497.833C224.721 497.301 195.139 491.735 187.784 479.619C185.02 477.386 183.345 479.042 179.657 475.787C173.931 470.732 164.833 472.267 158.159 471.901C143.92 471.12 136.52 451.784 128.632 441.669C122.892 434.308 120.834 426.411 118.038 417.926C115.622 410.593 115.883 402.884 113.51 395.682C111.184 388.624 111.641 382.985 108.161 375.812C102.629 364.415 97.7853 351.779 92.9749 339.978C72.5537 289.882 74.8546 234.955 90.1668 185.931C98.0445 160.709 111.81 130.655 133.335 116.099C154.005 102.122 178.866 91.3603 203.77 88.582C234.213 85.1859 263.71 79.3677 294.299 77.3594C324.643 75.3671 357.907 76.794 386.68 89.802C412.04 101.268 431.56 120.459 436.558 149.535C438.695 161.969 447.179 178.651 454.722 189.354C465.999 205.357 475.241 223.982 483.813 241.646C496.676 268.151 513.405 295.679 517.167 325.199C519.871 346.419 520.254 366.916 509.97 384.979C497.657 406.609 485.581 425.29 464.329 438.236C444.244 450.471 422.717 463.699 399.899 469.998C386.981 473.565 373.895 475.893 360.891 479.054C347.096 482.407 334.161 489.207 320.325 492.075C294.227 497.485 264.112 498.975 237.241 497.833Z" fill="#FFD541"/>
</svg>
